# xmcd
#
# Track frame offsets: 
#        150
#        37955
#        65382
#        88052
#        134940
#        168682
#        202977
#
# Disc length: 3328 seconds
#
# Revision: 0
# Processed by: cddbd v1.5.2PL0 Copyright (c) Steve Scherf et al.
# Submitted via: ExactAudioCopy v0.99pb5
#
DISCID=640cfe07
DTITLE=John Mayer - Any Given Thursday [CD2]
DYEAR=2003
DGENRE=Blues rock
TTITLE0=Why Georgia
TTITLE1=Your Body Is a Wonderland
TTITLE2=My Stupid Mouth
TTITLE3=Covered in Rain
TTITLE4=83
TTITLE5=Comfortable
TTITLE6=Neon
EXTD=
EXTT0=
EXTT1=
EXTT2=
EXTT3=
EXTT4=
EXTT5=
EXTT6=
PLAYORDER=
